PathFileType	4	(X/Y/Z)	Patient4_TMGait_0pt2_03_left_04.trc.trc
DataRate	CameraRate	NumFrames	NumMarkers	Units	OrigDataRate	OrigDataStartFrame	OrigNumFrames
45.602605863192	45.602605863192	4	33	mm	45.602605863192	89	       141
Frame#	Time	Sacral			L.Shoulder			Chest			R.Shoulder			Neck			R.ASIS			L.ASIS			R.Thigh.Superior			R.Thigh.Lateral			R.Thigh.Inferior			R.Patella			L.Thigh.Superior			L.Thigh.Lateral			L.Thigh.Inferior			L.Patella			L.Shank.Superior			L.Shank.Lateral			L.Shank.Inferior			R.Shank.Superior			R.Shank.Lateral			R.Shank.Inferior			R.Heel			R.Midfoot.Superior			R.Midfoot.Lateral			R.Toe			L.Heel			L.Midfoot.Lateral			L.Midfoot.Superior			L.Toe			L.Elbow			L.Wrist			R.Elbow			R.Wrist			
		X1	Y1	Z1	X2	Y2	Z2	X3	Y3	Z3	X4	Y4	Z4	X5	Y5	Z5	X6	Y6	Z6	X7	Y7	Z7	X8	Y8	Z8	X9	Y9	Z9	X10	Y10	Z10	X11	Y11	Z11	X12	Y12	Z12	X13	Y13	Z13	X14	Y14	Z14	X15	Y15	Z15	X16	Y16	Z16	X17	Y17	Z17	X18	Y18	Z18	X19	Y19	Z19	X20	Y20	Z20	X21	Y21	Z21	X22	Y22	Z22	X23	Y23	Z23	X24	Y24	Z24	X25	Y25	Z25	X26	Y26	Z26	X27	Y27	Z27	X28	Y28	Z28	X29	Y29	Z29	X30	Y30	Z30	X31	Y31	Z31	X32	Y32	Z32	X33	Y33	Z33	

89	9.129714285714	847.024453635419	1009.368405231894	478.602076065966	1056.787450799475	1431.914358972739	317.760345191480	1128.428288969279	1364.197338539944	494.200597162050	1022.872908552297	1444.798165852386	651.007906562044	1011.171690852979	1497.535688979682	470.391683064560	1064.618607832299	943.122168276604	618.315709028532	1074.500642259084	960.879014546764	342.938224986854	1116.052070739275	744.991312812213	578.661770466798	1041.475009244825	630.987823554249	637.756225787965	1119.435813239183	583.597318002151	554.927564762363	1125.226463463977	495.770061018049	560.534848246241	1075.250645941506	731.716475513077	360.682700741447	963.883065412428	636.427520340547	284.953231222351	1026.590661591527	541.545928578855	344.518236675560	1011.600273061017	471.761919006108	347.601500528367	968.715228009990	409.571050761291	333.547006494501	856.322282919871	322.348362829700	271.462078021683	880.287213852866	195.580969312253	332.221152241686	1097.710304530334	405.783050242441	567.210655830231	1030.571894244906	301.677754378230	633.211146914295	1068.428103666205	206.808934256047	567.207241842675	933.266176890479	42.983446304854	549.869454779163	1106.646497119048	97.172316372327	570.679236821040	1022.606759538143	37.290721085284	616.786428449034	1228.963129919567	46.230165577104	588.740497116740	723.607160554933	58.035066643757	356.664679292986	801.986976823047	45.975072991732	282.143994791058	889.679937577926	98.988848743089	313.287274539832	1012.621314092186	37.614141622019	291.819663373684	1181.999024535989	1122.655882802945	175.888769637680	1435.291497268245	1151.930359705429	210.635767780972	854.932325582761	1143.682575881799	747.969117149688	809.546603177909	884.568500536841	747.316055217651	
90	9.151642857143	847.654376635538	1010.467658488772	485.845749516005	1056.516131901031	1431.962006763328	321.556947662487	1130.446770845408	1364.318792704161	497.094776298067	1027.205431491246	1445.508245218643	655.068521761434	1013.071213449931	1497.966817933299	474.438253729788	1066.475281307877	942.985628750174	622.795199345778	1073.180499090223	961.375075165310	347.155268983916	1115.722072781511	744.292658351675	582.715191128687	1040.204826765571	630.720513622794	641.604042477138	1117.521911774285	583.049051076377	558.438462606773	1122.521512351416	495.209917158178	563.714849758856	1074.623431210100	732.508725601328	363.763553924636	963.029270565754	637.337457146343	288.296366064977	1027.179823746853	541.974867811333	346.248752249360	1012.422089976458	471.729274922506	348.790647880741	968.358863987276	410.176195953216	334.941672960426	854.409626846134	324.605799688237	273.220526991034	878.070841328906	196.938597662073	332.577650032619	1094.720988289963	405.415385147705	569.656897942626	1027.070328993380	301.097239191058	634.707946667667	1064.659999668347	206.584762922401	568.144909784407	928.898714301162	42.992073702427	549.795691008162	1102.331073985616	97.115689613289	570.782647144689	1018.220395374213	37.291156891817	616.723779074783	1224.611677160432	46.051147942604	588.893670471215	720.013409146649	60.643726397341	356.781757427087	798.101796667872	47.227368147892	282.172409885794	886.636440892417	99.265043226055	312.904027273670	1008.581883774343	37.141194221202	291.450870491657	1177.566964338782	1120.228977798740	180.414707595449	1431.979078845547	1142.611604505288	215.354886692228	861.612046235117	1143.529285938841	755.605368615356	816.687249660198	884.465754864877	757.079235619773	
91	9.173571428571	847.969148366703	1011.430008671936	493.014512378569	1055.922989924413	1431.851316842438	325.278140897002	1132.260913494178	1364.196554342114	499.800337924908	1031.493093031578	1445.935294827777	659.005337479518	1014.813893429418	1498.218504461554	478.409394541701	1068.132288333480	942.613225821659	626.949213464563	1071.403060865158	961.805420348223	351.108340110753	1115.426815299972	743.573052879758	586.294996849135	1039.285924906491	630.327675914103	645.139820931573	1115.875654708844	582.476126281471	561.520286996787	1120.179487082618	494.570997471015	566.524502065860	1074.142718104118	733.406399686097	366.496653485147	962.646034289976	637.979191660342	291.516709134620	1028.609476057055	542.370905045680	347.848541881821	1014.268345816864	471.472865621596	349.773556523916	968.811531359838	410.601614295294	336.327737209312	853.088713291764	326.983054604826	275.176270172495	876.164862030299	198.480017968671	333.211841985404	1092.003077674780	404.941885757321	571.856670498855	1023.814607974556	300.500927887037	636.104366109886	1060.990064050865	206.298824537860	568.993856645670	924.478294211971	42.981769549033	549.742498747007	1097.975560666677	97.054540990718	570.866928197353	1013.793873092025	37.289357878735	616.680974431276	1220.216815168087	45.899458967719	589.021308606900	716.517944828386	63.872851566722	357.407426456826	794.087045762904	48.955997643991	282.587179226712	883.601833197853	99.778403118542	312.762107671002	1004.273367381008	36.655197286758	291.145786381547	1171.955729103173	1117.192865133281	185.026411558916	1427.477198487015	1130.717410659316	219.883942919649	869.152275603510	1142.437443314233	763.100884312913	825.455030490527	883.282377768543	766.718158053776	
92	9.195500000000	847.956664596693	1012.159839199371	500.087053466594	1054.963038199093	1431.543116534084	328.924550275898	1133.806190520446	1363.779240005603	502.318373076154	1035.660566368495	1445.990909718187	662.824009825263	1016.333357521344	1498.235436123573	482.314749088863	1069.605880307739	941.996604866845	630.762135681523	1069.173020433156	962.089496396541	354.801141980157	1115.266516250114	742.833793704132	589.367018049938	1038.871114638441	629.777716945666	648.326399835734	1114.654487502050	581.864423761105	564.117164624709	1118.406873912091	493.813352930738	568.891287819858	1074.019706188834	734.432002956487	368.916447104590	963.102744354019	638.267559181719	294.648327753217	1031.320650958874	542.743997983925	349.394819249467	1017.612913927153	470.952362480242	350.608224186287	970.482694010654	410.785637044500	337.789113650371	852.722744600080	329.573729467299	277.419168980317	874.727545110095	200.326933385901	334.250410929415	1089.704792899737	404.324181915498	573.753007745063	1020.941771507458	299.879407162105	637.382472727643	1057.479062493888	205.926183603661	569.725312992878	920.020880627613	42.955179452920	549.717935569576	1093.593860015105	96.989238252698	570.933523067874	1009.341323718153	37.284765283501	616.664714661516	1215.794166605674	45.769354936207	589.120276775339	713.176267402480	68.144300043946	358.724851396265	789.932919075818	51.510857937893	283.552835384286	880.595233426462	100.730211347170	313.010913897850	999.586106230754	36.157174926958	291.006156768039	1165.169212455751	1113.567553349105	189.739788902658	1421.546425998935	1116.098041550945	224.194279210896	877.644642050758	1140.253839039688	770.364702360115	836.061291602187	880.845386030685	776.067829282913	
